<svg version="1.1" xmlns="http://www.w3.org/2000/svg" xmlns:xlink="http://www.w3.org/1999/xlink" width="70.58928" height="76.36819" viewBox="0,0,70.58928,76.36819"><g transform="translate(-206.38751,-141.31941)"><g data-paper-data="{&quot;isPaintingLayer&quot;:true}" fill-rule="nonzero" stroke="none" stroke-width="0.5" stroke-linecap="butt" stroke-linejoin="miter" stroke-miterlimit="10" stroke-dasharray="" stroke-dashoffset="0" style="mix-blend-mode: normal"><path d="M231.84006,142.61837c2.36577,0.27391 4.98284,1.47378 7.25346,1.85257c8.04788,1.34258 17.67443,0.2624 24.75554,5.09291c2.47554,1.68874 5.0275,4.66246 7.13393,6.79329c5.95247,10.26471 6.72408,22.66543 5.4988,34.28574c-0.37111,3.51953 -0.75109,8.10897 -2.48047,11.2453c-2.99193,5.42604 -8.53542,9.59291 -13.93813,12.30983c-9.73709,4.31949 -21.14641,5.24581 -30.54041,-0.78072c-3.48442,-2.23536 -6.11295,-5.30568 -9.10952,-8.09204c-2.49908,-2.32378 -5.17345,-3.80776 -6.9963,-6.7861c-2.15824,-3.52632 -3.41655,-7.66951 -4.93438,-11.4892c-1.2131,-5.39309 -2.49989,-10.71838 -1.97419,-16.29666c1.29191,-13.70872 8.64667,-25.82432 22.50649,-29.36651c0,0 2.00567,-0.50142 2.82518,1.2316z" fill="#000000"/><path d="M250.69682,194.82247c-0.54606,0.22236 -1.05583,0.51143 -1.26591,0.88387c-0.54328,0.96317 0.67024,1.44146 1.18124,1.82324c1.13654,0.84914 2.88409,2.54795 4.50438,1.69773c0.80531,-0.42257 0.50219,-1.19094 0.25797,-1.81211c-0.76022,-1.93358 -2.31793,-1.98478 -4.17213,-2.42771zM253.5024,190.40275c1.74878,0.41724 3.3373,0.81619 4.76158,2.26662c4.47439,4.55655 1.9921,11.92536 -4.75525,11.76164c-4.80668,-0.11664 -10.50835,-5.68288 -8.69721,-10.63808c1.02139,-2.79449 3.51065,-3.28883 5.80689,-4.19661c0,0 1.85789,-0.69671 2.884,0.80644z" fill="#000000"/><path d="M251.17706,194.94437c1.8542,0.44293 3.487,0.54195 4.24722,2.47553c0.24422,0.62116 0.53684,1.41577 -0.26847,1.83834c-1.62029,0.85022 -3.45606,-0.86926 -4.5926,-1.7184c-0.511,-0.38178 -1.72079,-0.89169 -1.17751,-1.85486c0.21008,-0.37244 0.73472,-0.67989 1.28078,-0.90225z" data-paper-data="{&quot;noHover&quot;:false,&quot;origItem&quot;:[&quot;Path&quot;,{&quot;applyMatrix&quot;:true,&quot;segments&quot;:[[[250.69682,194.82247],[0,0],[-0.54606,0.22236]],[[249.43091,195.70634],[0.21008,-0.37244],[-0.54328,0.96317]],[[250.61215,197.52958],[-0.511,-0.38178],[1.13654,0.84914]],[[255.11653,199.22731],[-1.62029,0.85022],[0.80531,-0.42257]],[[255.3745,197.4152],[0.24422,0.62116],[-0.76022,-1.93358]],[[251.20237,194.98748],[1.8542,0.44293],[0,0]]],&quot;closed&quot;:true}]}" fill="#ffffff"/><path d="M233.20297,186.8813c-0.45603,0.37548 -1.0201,0.65761 -1.33597,1.15421c-0.90501,1.42282 0.64238,2.47675 1.6292,2.88863c2.1164,0.88336 4.53343,1.45988 5.59689,-1.23872c0.6604,-1.67582 -2.77059,-3.50365 -4.10129,-3.37397c-0.624,0.06081 -1.20459,0.32387 -1.78884,0.56984zM227.4484,185.73315c-0.38589,-2.03669 1.69475,-2.73023 1.69475,-2.73023l1.9472,-0.64786c2.33939,-0.64414 5.01188,-1.11167 7.27546,-0.23768c5.38146,2.07785 8.00252,8.17473 3.24979,12.60691c-4.59576,4.28581 -13.99758,1.32768 -14.78973,-4.99482c-0.26022,-2.07696 -0.01794,-3.09719 0.62253,-3.99633z" fill="#000000"/><path d="M234.98452,186.26199c1.3307,-0.12968 4.8181,1.75693 4.15769,3.43275c-1.06346,2.6986 -3.56447,2.1486 -5.68087,1.26525c-0.98682,-0.41188 -2.54763,-1.51465 -1.64262,-2.93747c0.31587,-0.4966 0.8922,-0.80042 1.34823,-1.1759c0.58425,-0.24598 1.19357,-0.52382 1.81757,-0.58463z" data-paper-data="{&quot;noHover&quot;:false,&quot;origItem&quot;:[&quot;Path&quot;,{&quot;applyMatrix&quot;:true,&quot;segments&quot;:[[[233.20297,186.8813],[0.58425,-0.24598],[-0.45603,0.37548]],[[231.867,188.03551],[0.31587,-0.4966],[-0.90501,1.42282]],[[233.4962,190.92414],[-0.98682,-0.41188],[2.1164,0.88336]],[[239.09309,189.68542],[-1.06346,2.6986],[0.6604,-1.67582]],[[234.9918,186.31145],[1.3307,-0.12968],[-0.624,0.06081]]],&quot;closed&quot;:true}]}" fill="#ffffff"/></g></g></svg>