<svg version="1.1" xmlns="http://www.w3.org/2000/svg" xmlns:xlink="http://www.w3.org/1999/xlink" width="54.68989" height="54.37276" viewBox="0,0,54.68989,54.37276"><g transform="translate(-213.86849,-151.34117)"><g data-paper-data="{&quot;isPaintingLayer&quot;:true}" fill="#ffffff" fill-rule="nonzero" stroke="none" stroke-width="0.5" stroke-linecap="butt" stroke-linejoin="miter" stroke-miterlimit="10" stroke-dasharray="" stroke-dashoffset="0" style="mix-blend-mode: normal"><path d="M268.55838,177.66506c0,1.5 -1.5,1.5 -1.5,1.5l-1.26997,-0.05815c-0.29149,5.44052 -1.52731,10.87234 -2.7874,16.14415c-0.66887,2.79835 -1.97971,6.949 -4.57167,8.64734c-2.14442,1.4051 -5.39468,1.51238 -7.82948,1.81547c-3.57059,0.00569 -7.44198,-0.43951 -11.23769,-1.38673l-0.6929,0.0852c0.00868,-0.08581 0.01706,-0.17156 0.02515,-0.25726c-6.23022,-1.65625 -12.19553,-4.68042 -16.2175,-9.30034c-3.0161,-3.4645 -5.10894,-7.76609 -6.96167,-11.92532c-2.47655,-5.63342 -1.99056,-11.12833 0.33093,-16.70337l0.66878,-0.82856c0,0 1.06066,-1.06066 2.12132,0c1.06066,1.06066 0,2.12132 0,2.12132l-0.02087,-0.13891c-0.45993,1.10313 -0.84301,2.2015 -1.13342,3.29814c0.69863,-1.12019 1.49389,-2.21153 2.26594,-3.45676c1.22682,-1.97875 1.99001,-4.1709 3.31473,-6.09415c3.52613,-5.11931 9.52183,-9.0527 15.72664,-9.78049c0,0 0.9413,-0.10459 1.41108,0.60041c1.06292,-0.27416 2.11984,-0.40158 3.07456,-0.25366c1.43497,0.22232 3.78149,1.45951 5.15729,1.97547c3.79369,1.42272 9.04872,3.01484 12.06118,5.82856c2.90341,2.71186 3.38097,6.12208 4.56228,9.6638c0.51375,2.29892 0.75395,4.61304 0.7918,6.93066c0.16047,0.04785 0.31994,0.0979 0.47835,0.15017l0.73255,-0.07698c0,0 1.5,0 1.5,1.5zM251.69233,176.78228c0.69942,-0.26438 1.4233,-0.49638 2.16444,-0.69397c0.13004,-2.6936 -0.70766,-5.49034 -2.47986,-7.86638c-0.9951,-1.33415 -2.25097,-2.8765 -3.90458,-3.43572c-1.64861,-0.55753 -3.81656,0.55819 -5.47623,1.49558c-0.06826,1.1613 -0.12363,2.32419 -0.16845,3.4882c1.11788,0.42016 3.2699,1.2464 3.65702,1.61593c1.42104,1.35646 2.02484,3.81223 1.80424,6.05825c1.29365,-0.12282 2.58578,-0.25313 3.88918,-0.33476c0.25326,-0.22675 0.51424,-0.32713 0.51424,-0.32713zM218.25668,181.71102c1.72656,3.89428 3.681,7.92353 6.4866,11.17813c3.46636,4.0211 8.66988,6.6914 14.12898,8.22124c0.03285,-1.278 0.01836,-2.54587 -0.01952,-3.80772c-0.56421,0.02979 -1.10638,0.019 -1.61575,-0.0434c-1.2041,-0.1475 -2.32527,-0.80698 -3.53742,-0.85513c-2.05991,-0.08183 -2.89235,0.29486 -4.77417,-0.6986c-3.70079,-1.95374 -5.66043,-7.99662 -7.78623,-11.37083c-0.81034,-1.28622 -1.6006,-1.36034 -2.72181,-2.49974c-0.06709,-0.06818 -0.13183,-0.13453 -0.19434,-0.1992c0.01115,0.02508 0.02237,0.05016 0.03366,0.07524zM250.41345,202.71968c1.83485,-0.23041 4.66157,-0.2456 6.30845,-1.28797c1.93021,-1.22171 2.87743,-4.83759 3.35937,-6.8699c1.24167,-5.23609 2.527,-10.66358 2.7562,-16.08583c-0.61219,-0.09518 -1.23623,-0.15809 -1.86569,-0.19015c0.00974,1.03721 0.0004,2.0923 0.0004,3.17234c0,3.42016 0.18854,6.44863 -2.31096,9.13858c-2.49866,2.68904 -6.92832,3.44529 -10.32788,4.37245c-1.84123,0.5507 -4.22328,1.38917 -6.54461,1.90135c0.06519,1.64086 0.09942,3.29025 0.04822,4.95646c2.93709,0.60097 5.87101,0.88787 8.5765,0.89268zM262.16453,169.96201c-0.99529,-2.98771 -1.27418,-5.96869 -3.71358,-8.26724c-0.71204,-0.67093 -1.61466,-1.14776 -2.54504,-1.55818c0.13594,0.18446 0.26445,0.37636 0.38502,0.57587c1.02433,1.69506 1.62663,3.93788 1.94293,6.26837c0.4556,0.24746 0.6834,0.70306 0.6834,0.70306c1.26478,2.54409 1.75673,5.04234 1.94518,7.61167c0.66697,0.02495 1.33065,0.07953 1.98654,0.16501c-0.06813,-1.84025 -0.28188,-3.67568 -0.68445,-5.49857zM242.9108,154.67121c-0.12688,-0.02337 -0.2581,-0.03827 -0.39298,-0.04549c0.01153,0.27119 -0.0387,0.47211 -0.0387,0.47211c-0.12395,0.49474 -0.24215,0.98347 -0.35421,1.46788c1.69498,-0.32996 3.59144,-0.46537 5.45802,-0.31831c-1.54855,-0.69946 -3.11636,-1.2896 -4.67213,-1.57619zM236.69472,156.5929c0,0 -1.34164,0.67082 -2.01246,-0.67082c-0.07996,-0.15992 -0.13133,-0.31031 -0.15978,-0.45117c-5.75199,2.39721 -8.86372,7.89403 -12.2226,13.32757c-0.45846,0.74163 -0.97228,1.44009 -1.4714,2.13789c4.42831,-5.6923 9.79886,-10.08904 16.42115,-13.40606c0,0 0.88238,-0.44119 1.57375,0.10761c0.15388,-0.75552 0.32314,-1.51612 0.50638,-2.28724c-0.99031,0.40119 -1.93081,0.88778 -2.63505,1.24222zM223.66725,182.71954c1.33426,2.02048 2.57572,4.31587 3.82004,6.42311c0.67902,1.14991 1.55466,3.22677 2.87649,3.9302c1.12614,0.5993 2.28091,0.27845 3.50169,0.33588c1.26678,0.05959 2.45075,0.67473 3.70396,0.86901c0.36169,0.05607 0.75172,0.0743 1.16243,0.06182c-0.03581,-0.75097 -0.07325,-1.50094 -0.1072,-2.25077c-0.04899,-0.00879 -0.09838,-0.02054 -0.14788,-0.0357c-0.21376,0.01892 -0.429,0.0326 -0.6458,0.04071c-6.55315,0.24514 -12.09819,-5.80859 -13.79654,-11.78194c-1.07787,-0.40089 -2.15914,-0.76734 -3.24095,-0.90538c0.96287,0.99666 1.97278,1.94872 2.87375,3.31307zM247.50757,192.08507c2.79589,-0.76252 6.90703,-1.34987 8.98246,-3.55859c1.87303,-1.99332 1.48214,-4.52657 1.48214,-7.06832c0,-1.05371 0.01714,-2.08514 0.01499,-3.10022c-0.49411,0.04816 -0.98537,0.11388 -1.47066,0.19649c-0.79896,3.53348 -2.98117,6.75499 -6.49492,8.8738c-2.76878,1.38333 -5.51063,3.08592 -8.48948,4.00663c0.03353,0.8183 0.07445,1.63644 0.11591,2.45545c2.10931,-0.51229 4.30044,-1.33602 5.85957,-1.80525zM253.6879,162.20386c-2.03666,-3.61955 -8.71113,-3.41756 -12.22366,-2.40486c-0.13244,0.76074 -0.24681,1.52012 -0.34153,2.28512c0.54335,0.13804 0.80807,0.49378 0.93616,0.83054c2.00899,-0.94592 4.20856,-1.62936 6.3097,-0.99144c2.26957,0.68905 4.0413,2.68486 5.40577,4.49531c0.66523,0.88267 1.22185,1.80978 1.67091,2.76497c-0.18533,-2.53509 -0.69958,-5.09977 -1.75735,-6.97964zM224.82377,175.48458c0.24202,-0.02689 0.44911,-0.01013 0.62624,0.03682l0.28736,-0.71937c3.77183,-3.22828 6.88544,-6.22024 11.29239,-8.62623c0,0 0.35108,-0.1915 0.78957,-0.19546c0.057,-1.94223 0.23698,-3.79537 0.5196,-5.63992c-7.21082,3.64938 -12.78563,8.6645 -17.27384,15.39807l-0.07885,0.1836c0,0 -0.15,0.29999 -0.44999,0.54533c1.01313,0.09976 1.98575,0.3562 2.96161,0.66605c-0.01021,-0.11453 -0.1027,-1.49015 1.32591,-1.64889zM233.78681,187.64744c0.25083,0.17576 1.69268,1.38995 2.23689,1.48877c0.8278,0.15033 1.66303,0.15253 2.49798,0.04497c-0.03267,-1.50175 -0.02482,-3.0075 0.06461,-4.52426c-2.05315,0.47749 -4.06097,0.60631 -5.38971,0.13966c-1.36973,-0.48105 -2.45598,-1.99362 -2.91687,-3.61959c-0.31656,0.17974 -0.62148,0.21785 -0.62148,0.21785l-1.85954,0.15487c-0.09947,-0.02016 -0.19901,-0.042 -0.29859,-0.06536c1.15392,2.76524 3.14211,3.95954 6.28671,6.16308zM248.57795,184.79842c2.03397,-1.213 3.47289,-2.87995 4.3318,-4.76398c-2.21893,0.04552 -4.39754,0.29422 -6.58909,0.48725c-0.18754,0.30164 -0.40117,0.5758 -0.64095,0.81516c-0.85024,0.84876 -2.33559,1.69133 -4.03124,2.36225c0.0034,1.54475 0.00915,3.08835 0.01186,4.62974c2.46498,-0.96924 4.84012,-2.4909 6.91761,-3.53043zM234.02363,181.91284c1.12529,0.09459 2.88366,-0.03194 4.62308,-0.43285c0.00005,-0.29 0.00027,-0.58002 0.00069,-0.87007c-1.79082,-0.13182 -3.604,-0.30422 -5.41347,-0.40428c0.16145,0.79381 0.46188,1.67964 0.7897,1.7072zM244.17907,177.14782c-0.02156,-0.97494 0.15642,-2.78172 -0.71939,-3.54844c-0.48257,-0.42246 -1.09269,-0.63195 -1.7262,-0.80284c-0.04008,1.65355 -0.06294,3.30859 -0.0752,4.96384c0.83286,0.00946 1.65784,-0.01601 2.47811,-0.06243c0.03214,-0.17711 0.04688,-0.36044 0.04269,-0.55013zM232.26018,176.03436l2.06047,-1.88883c0,0 0.59929,-0.54935 1.3199,-0.398c0.95871,-1.13223 1.88855,-2.29182 2.94337,-3.35004c0,0 0.00027,-0.00027 0.00081,-0.0008c-0.60582,-0.29191 -0.74409,-0.93874 -0.77564,-1.21878c-3.73492,2.15291 -6.47419,4.75152 -9.72914,7.5657c-0.06797,0.16846 -0.17053,0.3452 -0.32526,0.49502c1.05985,-0.08261 2.12712,-0.10764 3.19798,-0.09513c0.41454,-0.38334 0.91771,-0.70999 1.30752,-1.10914zM218.75811,176.46848c-0.09109,-0.06066 -0.1698,-0.12501 -0.23759,-0.19196c-0.0025,0.0564 -0.00499,0.11281 -0.00749,0.16921c0.00881,0.01622 0.01764,0.03237 0.0265,0.04847c0.07317,-0.00958 0.14603,-0.01815 0.21859,-0.02573zM238.66057,177.60423c0.00744,-0.95659 0.01842,-1.91311 0.03418,-2.86931c-0.77073,0.90661 -1.52514,1.82409 -2.33864,2.69394c0.77008,0.05892 1.5387,0.11986 2.30446,0.17537z"/></g></g></svg>